<svg height="64.80000305175778" version="1.1" width="251.6750030517578"
    xmlns="http://www.w3.org/2000/svg" xmlns:xlink="http://www.w3.org/1999/xlink"
    style="overflow: hidden; position: relative; left: -0.399994px; top: -0.400009px;"
    viewBox="164 203.03199923706055 251.6750030517578 64.80000305175778"
    preserveAspectRatio="xMinYMin" id="main_svg">
    <desc style="-webkit-tap-highlight-color: rgba(0, 0, 0, 0);">Created with Logotizer</desc>
    <defs style="-webkit-tap-highlight-color: rgba(0, 0, 0, 0);"></defs>
    <path fill="#0d0d0d" stroke="none"
        d="M-93.99,0L-93.99,-34.13L-70.46,-34.13L-70.46,-28.85L-87.14,-28.85L-87.14,-19.45L-72.85,-19.45L-72.85,-14.18L-87.14,-14.18L-87.14,0L-93.99,0ZM-67.55,0L-67.55,-25.36L-61.2,-25.36L-60.89,-21.61Q-60,-23.6,-58.59,-24.71Q-57.17,-25.83,-55.32,-25.83Q-54.8,-25.83,-54.37,-25.75Q-53.93,-25.66,-53.49,-25.55L-54.21,-19.48L-56.72,-19.55Q-58.25,-19.55,-59.23,-18.91Q-60.21,-18.28,-60.73,-17.13L-60.73,0L-67.55,0ZM-51.8,-12.42L-51.8,-12.91Q-51.8,-18.59,-48.64,-22.21Q-45.47,-25.83,-39.87,-25.83Q-34.25,-25.83,-31.06,-22.22Q-27.87,-18.61,-27.87,-12.91L-27.87,-12.42Q-27.87,-6.7,-31.05,-3.11Q-34.22,0.49,-39.82,0.49Q-45.45,0.49,-48.62,-3.11Q-51.8,-6.7,-51.8,-12.42M-44.98,-12.42Q-44.98,-8.95,-43.76,-6.86Q-42.54,-4.76,-39.82,-4.76Q-37.18,-4.76,-35.94,-6.87Q-34.71,-8.98,-34.71,-12.42L-34.71,-12.91Q-34.71,-16.29,-35.96,-18.42Q-37.2,-20.55,-39.87,-20.55Q-42.52,-20.55,-43.75,-18.41Q-44.98,-16.27,-44.98,-12.91L-44.98,-12.42ZM-23.77,0L-23.77,-25.36L-17.39,-25.36L-17.09,-21.73Q-15.82,-23.67,-13.97,-24.75Q-12.12,-25.83,-9.82,-25.83Q-5.98,-25.83,-3.82,-23.41Q-1.67,-21,-1.67,-15.84L-1.67,0L-8.53,0L-8.53,-15.82Q-8.53,-18.38,-9.57,-19.44Q-10.6,-20.51,-12.68,-20.51Q-14.04,-20.51,-15.12,-19.96Q-16.2,-19.41,-16.93,-18.4L-16.93,0L-23.77,0ZM1.03,-20.55L1.03,-25.36L4.73,-25.36L4.73,-31.57L11.57,-31.57L11.57,-25.36L15.84,-25.36L15.84,-20.55L11.57,-20.55L11.57,-7.64Q11.57,-6.16,12.18,-5.53Q12.79,-4.9,13.82,-4.9Q14.36,-4.9,14.75,-4.96Q15.14,-5.02,15.65,-5.16L16.24,-0.21Q15.21,0.14,14.22,0.32Q13.24,0.49,12.09,0.49Q8.55,0.49,6.64,-1.45Q4.73,-3.4,4.73,-7.62L4.73,-20.55L1.03,-20.55ZM19.38,-11.95L19.38,-12.89Q19.4,-18.54,22.5,-22.2Q25.59,-25.83,30.75,-25.83Q30.77,-25.83,30.82,-25.83Q35.95,-25.83,38.79,-22.73Q41.62,-19.64,41.62,-14.37L41.62,-10.64L26.48,-10.64L26.43,-10.5Q26.62,-7.99,28.11,-6.38Q29.6,-4.76,32.15,-4.76Q34.43,-4.76,35.93,-5.21Q37.43,-5.67,39.21,-6.66L41.06,-2.44Q39.51,-1.17,37,-0.34Q34.5,0.49,31.43,0.49Q25.94,0.49,22.66,-3.02Q19.38,-6.54,19.38,-11.95M26.46,-15.28L26.53,-15.16L34.92,-15.16L34.92,-15.77Q34.92,-17.95,33.9,-19.25Q32.88,-20.55,30.82,-20.55Q28.92,-20.55,27.82,-19.1Q26.72,-17.65,26.46,-15.28ZM45.49,0L45.49,-25.36L51.86,-25.36L52.17,-21.73Q53.43,-23.67,55.29,-24.75Q57.14,-25.83,59.43,-25.83Q63.28,-25.83,65.43,-23.41Q67.59,-21,67.59,-15.84L67.59,0L60.72,0L60.72,-15.82Q60.72,-18.38,59.69,-19.44Q58.66,-20.51,56.57,-20.51Q55.22,-20.51,54.14,-19.96Q53.06,-19.41,52.33,-18.4L52.33,0L45.49,0ZM71.65,-11.98L71.65,-12.47Q71.65,-18.47,74.24,-22.15Q76.82,-25.83,81.54,-25.83Q83.43,-25.83,84.96,-25.01Q86.48,-24.19,87.63,-22.66L87.63,-36.56L94.5,-36.56L94.5,0L88.61,0L88.05,-3.09Q86.86,-1.34,85.23,-0.42Q83.6,0.49,81.49,0.49Q76.82,0.49,74.24,-2.93Q71.65,-6.35,71.65,-11.98M78.47,-11.98Q78.47,-8.65,79.59,-6.74Q80.72,-4.83,83.25,-4.83Q84.72,-4.83,85.82,-5.43Q86.93,-6.02,87.63,-7.17L87.63,-17.98Q86.93,-19.17,85.84,-19.84Q84.75,-20.51,83.29,-20.51Q80.79,-20.51,79.63,-18.28Q78.47,-16.05,78.47,-12.47L78.47,-11.98Z"
        transform="matrix(1,0,0,1,318.5,254.232)"
        style="-webkit-tap-highlight-color: rgba(0, 0, 0, 0);" stroke-width="1"></path>
    <path fill="#f3d108" stroke="none"
        d="M0,0H40V40H0ZM60,120H100V160H60ZM0,120H40V160H0ZM60,60H100V100H60ZM0,60H40V100H0ZM120,60H160V100H120ZM60,0H100V40H60ZM120,0H160V40H120ZM120,120H160V160H120Z"
        stroke-width="0" opacity="1" transform="matrix(0.3,0,0,0.3,164,213)"
        style="-webkit-tap-highlight-color: rgba(0, 0, 0, 0); opacity: 1;"></path>
</svg>